<svg width="61" height="40" viewBox="0 0 61 40" fill="none" xmlns="http://www.w3.org/2000/svg">
<g id="mastercard-light-large">
<rect id="card_bg" x="0.5" width="60" height="40" rx="4.75" fill="white"/>
<g id="mastercard">
<g id="Group" opacity="0.01">
<rect id="Rectangle" x="6.3125" y="4" width="48.3875" height="32" fill="white"/>
</g>
<rect id="Rectangle_2" x="24.125" y="9.5752" width="12.7625" height="20.85" fill="#F26122"/>
<path id="Path" d="M25.5019 20C25.4808 15.9419 27.324 12.0988 30.5019 9.57501C25.0647 5.29913 17.2543 5.92004 12.561 11.0013C7.86769 16.0825 7.86769 23.9175 12.561 28.9988C17.2543 34.08 25.0647 34.7009 30.5019 30.425C27.324 27.9012 25.4808 24.0581 25.5019 20Z" fill="#EA1D25"/>
<path id="Shape" fill-rule="evenodd" clip-rule="evenodd" d="M50.6748 27.7875V28.2125H50.5998V27.7875H50.4248V27.7H50.8623V27.7875H50.6748ZM51.5246 27.7V28.2125H51.4371V27.825L51.2996 28.1625H51.1996L51.0496 27.825V28.2125H50.9621V27.7H51.0871L51.2496 28.0625L51.3996 27.7H51.5246Z" fill="#F69E1E"/>
<path id="Path_2" d="M51.95 20.0004C51.9467 25.0746 49.0486 29.7022 44.4848 31.9202C39.9211 34.1382 34.4918 33.5579 30.5 30.4254C36.2501 25.8979 37.2458 17.5683 32.725 11.8129C32.0769 10.9795 31.3298 10.2281 30.5 9.57541C34.4918 6.4429 39.9211 5.86259 44.4848 8.08063C49.0486 10.2987 51.9467 14.9262 51.95 20.0004Z" fill="#F69E1E"/>
</g>
</g>
</svg>
