<svg width="61" height="40" viewBox="0 0 61 40" fill="none" xmlns="http://www.w3.org/2000/svg">
<g id="visa-light-large">
<rect id="card_bg" x="0.5" width="60" height="40" rx="4.75" fill="white"/>
<path id="visa-logo" fill-rule="evenodd" clip-rule="evenodd" d="M38.4383 22.0878C38.4459 20.1819 36.874 19.3587 35.6542 18.7199C34.8819 18.3154 34.2508 17.9849 34.2508 17.5003C34.2508 17.0878 34.6508 16.6503 35.5008 16.5378C36.5124 16.4378 37.5322 16.6149 38.4508 17.0503L38.9758 14.5503C38.0803 14.2145 37.1322 14.041 36.1758 14.0378C33.2258 14.0378 31.1758 15.6128 31.1758 17.8628C31.1758 19.5253 32.6633 20.4503 33.7883 21.0003C34.9133 21.5503 35.3508 21.9378 35.3383 22.4378C35.3383 23.2128 34.4133 23.5628 33.5508 23.5753C32.4869 23.589 31.437 23.3309 30.5008 22.8253L29.9633 25.3253C31.0226 25.7389 32.1511 25.9468 33.2883 25.9378C36.4258 25.9378 38.4883 24.3878 38.5008 21.9878L38.4383 22.0878ZM30.3269 14.238L27.8269 25.8005H24.8269L27.3269 14.238H30.3269ZM42.9006 21.738L44.4756 17.4005L45.3881 21.738H42.9006ZM49.0146 25.8377H46.2396L45.8771 24.1127H42.1146L41.5021 25.8377H38.3521L42.8396 15.1252C43.0465 14.6155 43.5396 14.2802 44.0896 14.2752H46.5896L49.0146 25.8377ZM21.2637 25.7627L26.1137 14.2002H22.8637L19.7512 22.0627L18.5012 15.3752C18.3905 14.6957 17.8022 14.1974 17.1137 14.2002H12.0262L11.9512 14.5377C12.9716 14.7374 13.9628 15.065 14.9012 15.5127C15.3009 15.7007 15.5717 16.0856 15.6137 16.5252L18.0012 25.7627H21.2637Z" fill="#2A2A6C"/>
</g>
</svg>
