<?xml version="1.0" encoding="UTF-8"?>
<svg width="483px" height="717px" viewBox="0 0 483 717" version="1.1" xmlns="http://www.w3.org/2000/svg" xmlns:xlink="http://www.w3.org/1999/xlink">
    <title>Battery</title>
    <defs>
        <rect id="path-1" x="0" y="116" width="447" height="366" rx="12"></rect>
        <filter x="-2.7%" y="-3.3%" width="105.4%" height="106.6%" filterUnits="objectBoundingBox" id="filter-2">
            <feMorphology radius="1" operator="dilate" in="SourceAlpha" result="shadowSpreadOuter1"></feMorphology>
            <feOffset dx="0" dy="0" in="shadowSpreadOuter1" result="shadowOffsetOuter1"></feOffset>
            <feGaussianBlur stdDeviation="3" in="shadowOffsetOuter1" result="shadowBlurOuter1"></feGaussianBlur>
            <feColorMatrix values="0 0 0 0 0.32664536   0 0 0 0 0.977699702   0 0 0 0 1  0 0 0 1 0" type="matrix" in="shadowBlurOuter1"></feColorMatrix>
        </filter>
    </defs>
    <g id="Symbols" stroke="none" stroke-width="1" fill="none" fill-rule="evenodd">
        <g id="Battery" transform="translate(-95.000000, -73.000000)">
            <g transform="translate(95.000000, 73.000000)">
                <path d="M374.327218,0 C383.311533,-4.26325641e-14 390.920122,6.62487482 392.156079,15.5237693 L392.156079,15.5237693 L403.333,96 L468,96 C476.284271,96 483,102.715729 483,111 L483,645 C483,653.284271 476.284271,660 468,660 L395.348,660 L363.910362,699.084415 C354.799109,710.411919 341.045216,717 326.508116,717 L153.210155,717 C137.983634,717 123.660208,709.775576 114.6097,697.530771 L86.87,660 L15,660 C6.71572875,660 1.01453063e-15,653.284271 0,645 L0,111 C-1.01453063e-15,102.715729 6.71572875,96 15,96 L79.667,96 L90.8439209,15.5237693 C92.0640329,6.73896321 99.4944224,0.170242356 108.32792,0.00325753522 L108.672782,0 Z M254,686 L220,686 C218.343146,686 217,687.343146 217,689 L217,689 L217,704 C217,705.656854 218.343146,707 220,707 L220,707 L254,707 C255.656854,707 257,705.656854 257,704 L257,704 L257,689 C257,687.343146 255.656854,686 254,686 L254,686 Z M315,687 L292,687 C290.343146,687 289,688.343146 289,690 L289,690 L289,702 C289,703.656854 290.343146,705 292,705 L292,705 L315,705 C316.656854,705 318,703.656854 318,702 L318,702 L318,690 C318,688.343146 316.656854,687 315,687 L315,687 Z M346.994348,687 L332,687 C330.343146,687 329,688.343146 329,690 L329,690 L329,699.5 C329,701.156854 330.343146,702.5 332,702.5 L332,702.5 L340.865316,702.5 C341.884373,702.5 342.833748,701.982691 343.386206,701.126381 L343.386206,701.126381 L349.515238,691.626381 C349.828001,691.141599 349.994348,690.576917 349.994348,690 C349.994348,688.343146 348.651203,687 346.994348,687 L346.994348,687 Z M453,122 L30,122 C23.372583,122 18,127.372583 18,134 L18,134 L18,622 C18,628.627417 23.372583,634 30,634 L30,634 L453,634 C459.627417,634 465,628.627417 465,622 L465,622 L465,134 C465,127.372583 459.627417,122 453,122 L453,122 Z" id="Combined-Shape" fill-opacity="0.426403986" fill="#929292"></path>
                <path d="M144.974359,90 C140.017957,90 136,85.9820426 136,81.025641 C136,76.0692394 140.017957,72.0512821 144.974359,72.0512821 L181.486425,72.0512821 C183.716806,72.0512821 185.524887,70.2432012 185.524887,68.0128205 C185.524887,65.7824398 183.716806,63.974359 181.486425,63.974359 L181.486425,63.974359 L144.974359,63.974359 C140.017957,63.974359 136,59.9564016 136,55 C136,50.0435984 140.017957,46.025641 144.974359,46.025641 L181.486425,46.025641 C183.716806,46.025641 185.524887,44.2175602 185.524887,41.9871795 C185.524887,39.7567988 183.716806,37.9487179 181.486425,37.9487179 L181.486425,37.9487179 L144.974359,37.9487179 C140.017957,37.9487179 136,33.9307606 136,28.974359 C136,24.0179574 140.017957,20 144.974359,20 L326.025641,20 C330.982043,20 335,24.0179574 335,28.974359 C335,33.9307606 330.982043,37.9487179 326.025641,37.9487179 L289.513575,37.9487179 C287.283194,37.9487179 285.475113,39.7567988 285.475113,41.9871795 C285.475113,44.2175602 287.283194,46.025641 289.513575,46.025641 L326.025641,46.025641 C330.982043,46.025641 335,50.0435984 335,55 C335,59.9564016 330.982043,63.974359 326.025641,63.974359 L289.513575,63.974359 C287.283194,63.974359 285.475113,65.7824398 285.475113,68.0128205 C285.475113,70.2432012 287.283194,72.0512821 289.513575,72.0512821 L326.025641,72.0512821 C330.982043,72.0512821 335,76.0692394 335,81.025641 C335,85.9820426 330.982043,90 326.025641,90 L144.974359,90 Z M256.223982,63.974359 L214.776018,63.974359 C212.545637,63.974359 210.737557,65.7824398 210.737557,68.0128205 C210.737557,70.2432012 212.545637,72.0512821 214.776018,72.0512821 L214.776018,72.0512821 L256.223982,72.0512821 C258.454363,72.0512821 260.262443,70.2432012 260.262443,68.0128205 C260.262443,65.7824398 258.454363,63.974359 256.223982,63.974359 L256.223982,63.974359 Z M256.223982,37.9487179 L214.776018,37.9487179 C212.545637,37.9487179 210.737557,39.7567988 210.737557,41.9871795 C210.737557,44.2175602 212.545637,46.025641 214.776018,46.025641 L214.776018,46.025641 L256.223982,46.025641 C258.454363,46.025641 260.262443,44.2175602 260.262443,41.9871795 C260.262443,39.7567988 258.454363,37.9487179 256.223982,37.9487179 L256.223982,37.9487179 Z" id="Combined-Shape" fill="#181918"></path>
                <g id="Group" transform="translate(18.000000, 154.000000)">
                    <g id="Charge-green">
                        <use fill="black" fill-opacity="1" filter="url(#filter-2)" xlink:href="#path-1"></use>
                        <use fill="#53F9FF" fill-rule="evenodd" xlink:href="#path-1"></use>
                    </g>
                    <path d="M188,475 L188,482 L160,482 L160,475 L188,475 Z M285,475 L285,482 L257,482 L257,475 L285,475 Z M447,360 L447,368 L444,368 L444,408 L424,408 L424,368 L409,368 L409,408 L389,408 L389,368 L374,368 L374,408 L354,408 L354,368 L339,368 L339,431 L319,431 L319,368 L304,368 L304,431 L284,431 L284,368 L264,368 L264,452 L184,452 L184,368 L164,368 L164,431 L144,431 L144,368 L129,368 L129,431 L109,431 L109,368 L94,368 L94,408 L74,408 L74,368 L59,368 L59,408 L39,408 L39,368 L24,368 L24,408 L4,408 L4,368 L0,368 L0,360 L447,360 Z M447,230 L447,238 L426,238 L426,270 L447,270 L447,278 L426,278 L426,318 L406,318 L406,278 L391,278 L391,318 L371,318 L371,278 L356,278 L356,318 L336,318 L336,278 L321,278 L321,329 L301,329 L301,278 L286,278 L286,318 L266,318 L266,278 L251,278 L251,318 L196,318 L196,278 L181,278 L181,318 L161,318 L161,278 L146,278 L146,329 L126,329 L126,278 L111,278 L111,318 L91,318 L91,278 L76,278 L76,318 L56,318 L56,278 L41,278 L41,318 L21,318 L21,278 L0,278 L0,270 L21,270 L21,238 L0,238 L0,230 L447,230 Z M161,238 L146,238 L146,270 L161,270 L161,238 Z M231,238 L216,238 L216,270 L231,270 L231,238 Z M301,238 L286,238 L286,270 L301,270 L301,238 Z M371,238 L356,238 L356,270 L371,270 L371,238 Z M56,238 L41,238 L41,270 L56,270 L56,238 Z M126,238 L111,238 L111,270 L126,270 L126,238 Z M266,238 L251,238 L251,270 L266,270 L266,238 Z M91,238 L76,238 L76,270 L91,270 L91,238 Z M336,238 L321,238 L321,270 L336,270 L336,238 Z M196,238 L181,238 L181,270 L196,270 L196,238 Z M406,238 L391,238 L391,270 L406,270 L406,238 Z M447,140 L447,148 L426,148 L426,188 L406,188 L406,148 L391,148 L391,188 L371,188 L371,148 L356,148 L356,188 L336,188 L336,148 L321,148 L321,188 L301,188 L301,148 L286,148 L286,188 L266,188 L266,148 L251,148 L251,188 L231,188 L231,148 L216,148 L216,188 L196,188 L196,148 L181,148 L181,188 L161,188 L161,148 L146,148 L146,188 L126,188 L126,148 L111,148 L111,188 L91,188 L91,148 L76,148 L76,188 L56,188 L56,148 L41,148 L41,188 L21,188 L21,148 L0,148 L0,140 L447,140 Z M264,0 L264,84 L284,84 L284,21 L304,21 L304,84 L319,84 L319,21 L339,21 L339,84 L354,84 L354,44 L374,44 L374,84 L389,84 L389,44 L409,44 L409,84 L424,84 L424,44 L444,44 L444,84 L447,84 L447,92 L0,92 L0,84 L4,84 L4,44 L24,44 L24,84 L39,84 L39,44 L59,44 L59,84 L74,84 L74,44 L94,44 L94,84 L109,84 L109,21 L129,21 L129,84 L144,84 L144,21 L164,21 L164,84 L184,84 L184,0 L264,0 Z" id="Combined-Shape" fill-opacity="0.0984488225" fill="#090909"></path>
                </g>
            </g>
        </g>
    </g>
</svg>