<?xml version="1.0" encoding="UTF-8"?>
<svg width="19px" height="33px" viewBox="0 0 19 33" version="1.1" xmlns="http://www.w3.org/2000/svg" xmlns:xlink="http://www.w3.org/1999/xlink">
    <title>Charge</title>
    <g id="Symbols" stroke="none" stroke-width="1" fill="none" fill-rule="evenodd">
        <g id="Car's-top-tab" transform="translate(-95.000000, -1.000000)" fill="#848484" fill-rule="nonzero">
            <g id="Battery-OFF" transform="translate(95.000000, 1.000000)">
                <path d="M0,33 L0,3.21008065 L5.78695667,3.21008065 L5.78695667,0 L13.2130433,0 L13.2130433,3.21008065 L19,3.21008065 L19,33 C12.6665966,33 6.33319327,33 0,33 L0,33 Z M14.1664363,28.4816532 L14.1664363,23.8590726 L4.8335637,23.8590726 L4.8335637,28.4816532 L14.1664363,28.4816532 L14.1664363,28.4816532 Z M14.1664363,22.9024194 L14.1664363,18.2796371 L4.8335637,18.2796371 L4.8335637,22.9024194 L14.1664363,22.9024194 L14.1664363,22.9024194 Z M14.1664363,17.3530242 L14.1664363,12.7304435 L4.8335637,12.7304435 L4.8335637,17.3530242 L14.1664363,17.3530242 L14.1664363,17.3530242 Z M3.74634276,29.4046371 L15.2536572,29.4046371 L15.2536572,6.80524194 L3.74634276,6.80524194 L3.74634276,29.4046371 Z" id="Shape"></path>
            </g>
        </g>
    </g>
</svg>