<?xml version="1.0" encoding="UTF-8"?>
<svg width="80px" height="80px" viewBox="0 0 80 80" version="1.1" xmlns="http://www.w3.org/2000/svg" xmlns:xlink="http://www.w3.org/1999/xlink">
    <title>coolShape</title>
    <g id="App" stroke="none" stroke-width="1" fill="none" fill-rule="evenodd">
        <g id="Car-Temperature-(COOL)" transform="translate(-31.000000, -170.000000)">
            <g id="coolShape" transform="translate(33.000000, 172.000000)">
                <circle id="Oval-2" stroke="#39EEFF" stroke-width="3.465" cx="38.115" cy="38.115" r="38.115"></circle>
                <polygon id="Shape" fill="#39EEFF" fill-rule="nonzero" points="57.6392785 41.3456948 51.4785015 42.992442 43.0100555 38.115 51.4785015 33.237558 57.6392785 34.8843052 58.905 30.1603736 54.1358174 28.8834467 55.4085318 24.1246264 50.6813068 22.8546773 49.0309738 29.0020684 40.5625277 33.8864881 40.5625277 24.1246264 45.0729717 19.6239825 41.6114682 16.17 38.115 19.6588712 34.6185318 16.17 31.1570283 19.6239825 35.6674723 24.1246264 35.6674723 33.8864881 27.1990262 29.0020684 25.5417003 22.8546773 20.8214682 24.1246264 22.0941826 28.8834467 17.325 30.1603736 18.5907215 34.8843052 24.7514985 33.237558 33.2199445 38.115 24.7514985 42.992442 18.5907215 41.3456948 17.325 46.0696264 22.0941826 47.3465533 20.8214682 52.1123514 25.5417003 53.3753227 27.1990262 47.2279316 35.6674723 42.3435119 35.6674723 52.1053736 31.1570283 56.6060175 34.6185318 60.06 38.115 56.5711288 41.6114682 60.06 45.0729717 56.6060175 40.5625277 52.1053736 40.5625277 42.3435119 49.0309738 47.2279316 50.6813068 53.3753227 55.4085318 52.1123514 54.1358174 47.3465533 58.905 46.0696264"></polygon>
            </g>
        </g>
    </g>
</svg>