<?xml version="1.0" encoding="UTF-8"?>
<svg width="28px" height="81px" viewBox="0 0 28 81" version="1.1" xmlns="http://www.w3.org/2000/svg" xmlns:xlink="http://www.w3.org/1999/xlink">
    <title>FL Tyre</title>
    <g id="App" stroke="none" stroke-width="1" fill="none" fill-rule="evenodd" opacity="0.458050272">
        <g id="Car-Tyres-(Normal)" transform="translate(-100.000000, -242.000000)" fill="#FFFFFF">
            <g id="Tyres" transform="translate(97.000000, 242.000000)">
                <path d="M21.692128,0 L21.883,0.002 L21.883,9.643 L19.9302326,11.5714286 L21.883,9.964 L21.883,19.286 L19.9302326,21.2142857 L21.883,19.607 L21.883,28.928 L19.9302326,30.8571429 L21.883,29.25 L21.883,38.571 L19.9302326,40.5 L21.883,38.893 L21.883,48.214 L19.9302326,50.1428571 L21.883,48.535 L21.883,57.857 L19.9302326,59.7857143 L21.883,58.178 L21.883,67.5 L19.9302326,69.4285714 L21.883,67.821 L21.883,77.143 L19.9302326,79.0714286 L21.883,77.464 L21.8837747,80.9980662 C21.8200476,80.9993534 21.7561633,81 21.692128,81 L17.3255814,81 L17.3255814,0 L21.692128,0 Z M16.0232558,0 L16.0232558,81 L12.307872,81 L12.116,80.997 L12.116,77.464 L14.0697674,79.0714286 L12.116,77.143 L12.116,67.821 L14.0697674,69.4285714 L12.116,67.5 L12.116,58.178 L14.0697674,59.7857143 L12.116,57.857 L12.116,48.535 L14.0697674,50.1428571 L12.116,48.214 L12.116,38.893 L14.0697674,40.5 L12.116,38.571 L12.116,29.25 L14.0697674,30.8571429 L12.116,28.928 L12.116,19.607 L14.0697674,21.2142857 L12.116,19.286 L12.116,9.964 L14.0697674,11.5714286 L12.116,9.643 L12.1162253,0.00193375604 C12.1799524,0.000646643257 12.2438367,-1.03646084e-17 12.307872,0 L16.0232558,0 Z M5.60465116,74.8928571 L7.791,75.355 L8.20930233,79.0714286 L8.374,75.478 L10.1627907,75.8571429 L10.1624559,80.751536 C8.39495514,80.3345517 6.82203269,79.4136904 5.60365056,78.1489141 L5.60465116,74.8928571 Z M28.3953488,74.8928571 L28.3963494,78.1489141 C27.1779673,79.4136904 25.6050449,80.3345517 23.8375441,80.751536 L23.8372093,75.8571429 L25.625,75.478 L25.7906977,79.0714286 L26.208,75.355 L28.3953488,74.8928571 Z M4.95325642,3.60224459 L4.95325642,77.3977554 C3.72897911,75.8219291 3,73.8421596 3,71.692128 L3,9.307872 C3,7.15784037 3.72897911,5.17807093 4.95325642,3.60224459 Z M31,9.307872 L31,71.692128 C31,73.8421596 30.2710209,75.8219291 29.0467436,77.3977554 L29.0467436,3.60224459 C30.2710209,5.17807093 31,7.15784037 31,9.307872 Z M28.3953488,65.25 L28.3953488,70.3928571 L25.4651163,72 L25.584,74.598 L23.8372093,75.2142857 L23.8372093,66.2142857 L25.625,65.835 L25.7906977,69.4285714 L26.208,65.712 L28.3953488,65.25 Z M5.60465116,65.25 L7.791,65.712 L8.20930233,69.4285714 L8.374,65.835 L10.1627907,66.2142857 L10.1627907,75.2142857 L8.415,74.598 L8.53488372,72 L5.60465116,70.3928571 L5.60465116,65.25 Z M28.3953488,71.6785714 L28.3953488,73.6071429 L26.323,74.338 L26.4418605,73.2857143 L28.3953488,71.6785714 Z M5.60465116,71.6785714 L7.55813953,73.2857143 L7.676,74.338 L5.60465116,73.6071429 L5.60465116,71.6785714 Z M5.60465116,55.6071429 L7.791,56.07 L8.20930233,59.7857143 L8.374,56.193 L10.1627907,56.5714286 L10.1627907,65.5714286 L8.415,64.955 L8.53488372,62.3571429 L5.60465116,60.75 L5.60465116,55.6071429 Z M28.3953488,55.6071429 L28.3953488,60.75 L25.4651163,62.3571429 L25.584,64.955 L23.8372093,65.5714286 L23.8372093,56.5714286 L25.625,56.193 L25.7906977,59.7857143 L26.208,56.07 L28.3953488,55.6071429 Z M28.3953488,62.0357143 L28.3953488,63.9642857 L26.323,64.695 L26.4418605,63.6428571 L28.3953488,62.0357143 Z M5.60465116,62.0357143 L7.55813953,63.6428571 L7.676,64.695 L5.60465116,63.9642857 L5.60465116,62.0357143 Z M5.60465116,45.9642857 L7.791,46.427 L8.20930233,50.1428571 L8.374,46.55 L10.1627907,46.9285714 L10.1627907,55.9285714 L8.415,55.312 L8.53488372,52.7142857 L5.60465116,51.1071429 L5.60465116,45.9642857 Z M28.3953488,45.9642857 L28.3953488,51.1071429 L25.4651163,52.7142857 L25.584,55.312 L23.8372093,55.9285714 L23.8372093,46.9285714 L25.625,46.55 L25.7906977,50.1428571 L26.208,46.427 L28.3953488,45.9642857 Z M5.60465116,52.3928571 L7.55813953,54 L7.676,55.052 L5.60465116,54.3214286 L5.60465116,52.3928571 Z M28.3953488,52.3928571 L28.3953488,54.3214286 L26.323,55.052 L26.4418605,54 L28.3953488,52.3928571 Z M28.3953488,36.3214286 L28.3953488,41.4642857 L25.4651163,43.0714286 L25.584,45.669 L23.8372093,46.2857143 L23.8372093,37.2857143 L25.625,36.907 L25.7906977,40.5 L26.208,36.784 L28.3953488,36.3214286 Z M5.60465116,36.3214286 L7.791,36.784 L8.20930233,40.5 L8.374,36.907 L10.1627907,37.2857143 L10.1627907,46.2857143 L8.415,45.669 L8.53488372,43.0714286 L5.60465116,41.4642857 L5.60465116,36.3214286 Z M5.60465116,42.75 L7.55813953,44.3571429 L7.676,45.409 L5.60465116,44.6785714 L5.60465116,42.75 Z M28.3953488,42.75 L28.3953488,44.6785714 L26.323,45.409 L26.4418605,44.3571429 L28.3953488,42.75 Z M5.60465116,26.6785714 L7.791,27.141 L8.20930233,30.8571429 L8.374,27.264 L10.1627907,27.6428571 L10.1627907,36.6428571 L8.415,36.026 L8.53488372,33.4285714 L5.60465116,31.8214286 L5.60465116,26.6785714 Z M28.3953488,26.6785714 L28.3953488,31.8214286 L25.4651163,33.4285714 L25.584,36.026 L23.8372093,36.6428571 L23.8372093,27.6428571 L25.625,27.264 L25.7906977,30.8571429 L26.208,27.141 L28.3953488,26.6785714 Z M28.3953488,33.1071429 L28.3953488,35.0357143 L26.323,35.766 L26.4418605,34.7142857 L28.3953488,33.1071429 Z M5.60465116,33.1071429 L7.55813953,34.7142857 L7.676,35.766 L5.60465116,35.0357143 L5.60465116,33.1071429 Z M28.3953488,17.0357143 L28.3953488,22.1785714 L25.4651163,23.7857143 L25.584,26.383 L23.8372093,27 L23.8372093,18 L25.625,17.621 L25.7906977,21.2142857 L26.208,17.498 L28.3953488,17.0357143 Z M5.60465116,17.0357143 L7.791,17.498 L8.20930233,21.2142857 L8.374,17.621 L10.1627907,18 L10.1627907,27 L8.415,26.383 L8.53488372,23.7857143 L5.60465116,22.1785714 L5.60465116,17.0357143 Z M28.3953488,23.4642857 L28.3953488,25.3928571 L26.323,26.123 L26.4418605,25.0714286 L28.3953488,23.4642857 Z M5.60465116,23.4642857 L7.55813953,25.0714286 L7.676,26.123 L5.60465116,25.3928571 L5.60465116,23.4642857 Z M28.3953488,7.39285714 L28.3953488,12.5357143 L25.4651163,14.1428571 L25.584,16.741 L23.8372093,17.3571429 L23.8372093,8.35714286 L25.625,7.978 L25.7906977,11.5714286 L26.208,7.855 L28.3953488,7.39285714 Z M5.60465116,7.39285714 L7.791,7.855 L8.20930233,11.5714286 L8.374,7.978 L10.1627907,8.35714286 L10.1627907,17.3571429 L8.415,16.741 L8.53488372,14.1428571 L5.60465116,12.5357143 L5.60465116,7.39285714 Z M28.3953488,13.8214286 L28.3953488,15.75 L26.323,16.481 L26.4418605,15.4285714 L28.3953488,13.8214286 Z M5.60465116,13.8214286 L7.55813953,15.4285714 L7.676,16.481 L5.60465116,15.75 L5.60465116,13.8214286 Z M10.1624559,0.248463962 L10.1627907,7.71428571 L8.415,7.098 L8.53488372,4.5 L5.60465116,2.89285714 L5.60365056,2.85108589 C6.82203269,1.58630958 8.39495514,0.66544827 10.1624559,0.248463962 Z M28.3953488,4.17857143 L28.3953488,6.10714286 L26.323,6.838 L26.4418605,5.78571429 L28.3953488,4.17857143 Z M5.60465116,4.17857143 L7.55813953,5.78571429 L7.676,6.838 L5.60465116,6.10714286 L5.60465116,4.17857143 Z M28.3953488,2.89285714 L25.4651163,4.5 L25.584,7.098 L23.8372093,7.71428571 L23.8375441,0.248463962 C25.6050449,0.66544827 27.1779673,1.58630958 28.3963494,2.85108589 L28.3953488,2.89285714 Z" id="FL-Tyre"></path>
            </g>
        </g>
    </g>
</svg>