<?xml version="1.0" encoding="UTF-8"?>
<svg width="65px" height="65px" viewBox="0 0 65 65" version="1.1" xmlns="http://www.w3.org/2000/svg" xmlns:xlink="http://www.w3.org/1999/xlink">
    <title>heatShape</title>
    <g id="App" stroke="none" stroke-width="1" fill="none" fill-rule="evenodd">
        <g id="Car-Temperature-(COOL)" transform="translate(-148.000000, -179.000000)">
            <g id="Toggle-AC" transform="translate(33.000000, 172.000000)">
                <g id="heatShape" transform="translate(117.348000, 8.778000)">
                    <circle id="Oval-2" stroke="#FFFFFF" stroke-width="2.772" cx="30.492" cy="30.492" r="30.492"></circle>
                    <path d="M32.5746771,10.5349296 C32.5746771,10.5349296 33.4613551,9.84984854 33.9096327,10.3417615 C34.3579103,10.8336745 34.1787955,11.245911 34.0443811,11.7973777 C33.326855,14.7411876 32.6943262,20.3640008 35.5039595,28.8734137 C39.979405,42.4306902 32.2962279,48.4025484 28.3297845,50.6298825 C27.7164895,50.9742741 27.2049526,51.1262703 26.8833616,50.831123 C26.5617705,50.5359756 26.7814803,49.8963709 26.7814803,49.8963709 C27.6155947,47.1639443 28.4910801,41.350145 25.4845677,32.2445109 C21.0402671,18.7814572 28.5446951,12.7228113 32.5746771,10.5349296 Z M44.0563481,16.2373808 C44.0563481,16.2373808 44.6907335,15.747231 45.0114579,16.0991761 C45.3321822,16.4511213 45.2040329,16.7460603 45.1078636,17.1406134 C44.5945026,19.2467977 44.1419534,23.2697048 46.1521377,29.3578644 C49.354147,39.0575765 43.8571277,43.3302139 41.0192911,44.9237842 C40.580502,45.1701854 40.2145138,45.2789342 39.9844301,45.067764 C39.754343,44.8565982 39.9115367,44.3989863 39.9115367,44.3989863 C40.5083141,42.4440413 41.1346909,38.2844892 38.9836455,31.7697547 C35.8039187,22.1374552 41.173049,17.8027264 44.0563481,16.2373808 Z M19.9078034,16.2373808 C19.9078034,16.2373808 20.5421879,15.747231 20.8629131,16.0991761 C21.1836391,16.4511213 21.055489,16.7460603 20.9593205,17.1406134 C20.4459586,19.2467977 19.9934077,23.2697048 22.0035928,29.3578644 C25.205603,39.0575765 19.7085837,43.3302139 16.8707454,44.9237842 C16.4319563,45.1701854 16.0659707,45.2789342 15.8358845,45.067764 C15.6057991,44.8565982 15.7629928,44.3989863 15.7629928,44.3989863 C16.3597702,42.4440413 16.986147,38.2844892 14.8351012,31.7697547 C11.6553739,22.1374552 17.0245051,17.8027264 19.9078034,16.2373808 Z" id="Combined-Shape" fill="#FFFFFF" fill-rule="nonzero"></path>
                </g>
            </g>
        </g>
    </g>
</svg>