<?xml version="1.0" encoding="UTF-8"?>
<svg width="25px" height="33px" viewBox="0 0 25 33" version="1.1" xmlns="http://www.w3.org/2000/svg" xmlns:xlink="http://www.w3.org/1999/xlink">
    <title>Lock</title>
    <g id="Symbols" stroke="none" stroke-width="1" fill="none" fill-rule="evenodd">
        <g id="Car's-top-tab" transform="translate(0.000000, -1.000000)">
            <g id="Lock" transform="translate(0.000000, 1.000000)">
                <path d="M12.5,0.00051251626 C17.3603753,-0.0487474389 22.0588235,3.4626713 22.0588235,6.31956331 L22.058,13.34 L22.2298,13.3407309 C23.7597392,13.3407309 25,14.5809916 25,16.1109309 L25,30.2298 C25,31.7597392 23.7597392,33 22.2298,33 L2.7702,33 C1.24026079,33 1.07554194e-15,31.7597392 0,30.2298 L0,16.1109309 C-6.31452726e-16,14.5809916 1.24026079,13.3407309 2.7702,13.3407309 L2.941,13.34 L2.94117647,6.31956331 L2.94117647,6.31956331 C2.94117647,3.55952128 7.80439367,0.0481025359 12.5,0.00051251626 Z M12.5,20.3618984 C11.2817248,20.3618984 10.2941176,21.3049435 10.2941176,22.4682487 C10.2941176,23.3269505 10.8322409,24.0656381 11.6040435,24.3936042 L11.0294118,28.7872995 L13.9705882,28.7872995 L13.3959565,24.3936042 C14.1677591,24.0656381 14.7058824,23.3269505 14.7058824,22.4682487 C14.7058824,21.3049435 13.7182752,20.3618984 12.5,20.3618984 Z M12.5,4.21321305 C9.91009113,4.19905546 7.35294118,5.51370767 7.35294118,7.72379682 L7.352,13.34 L17.647,13.34 L17.6470588,7.72379682 L17.6470588,7.72379682 C17.6470588,5.54184261 15.0569387,4.2271904 12.5,4.21321305 Z" id="Lock-OFF" fill-opacity="0.499518795" fill="#FFFFFF"></path>
                <path d="M12.5,0.00051251626 C17.3603753,-0.0487474389 22.0588235,3.4626713 22.0588235,6.31956331 L22.058,13.34 L22.2298,13.3407309 C23.7597392,13.3407309 25,14.5809916 25,16.1109309 L25,30.2298 C25,31.7597392 23.7597392,33 22.2298,33 L2.7702,33 C1.24026079,33 1.07554194e-15,31.7597392 0,30.2298 L0,16.1109309 C-6.31452726e-16,14.5809916 1.24026079,13.3407309 2.7702,13.3407309 L2.941,13.34 L2.94117647,6.31956331 L2.94117647,6.31956331 C2.94117647,3.55952128 7.80439367,0.0481025359 12.5,0.00051251626 Z M12.5,20.3618984 C11.2817248,20.3618984 10.2941176,21.3049435 10.2941176,22.4682487 C10.2941176,23.3269505 10.8322409,24.0656381 11.6040435,24.3936042 L11.0294118,28.7872995 L13.9705882,28.7872995 L13.3959565,24.3936042 C14.1677591,24.0656381 14.7058824,23.3269505 14.7058824,22.4682487 C14.7058824,21.3049435 13.7182752,20.3618984 12.5,20.3618984 Z M12.5,4.21321305 C9.91009113,4.19905546 7.35294118,5.51370767 7.35294118,7.72379682 L7.352,13.34 L17.647,13.34 L17.6470588,7.72379682 L17.6470588,7.72379682 C17.6470588,5.54184261 15.0569387,4.2271904 12.5,4.21321305 Z" id="Lock-ON" fill="#53F9FF"></path>
            </g>
        </g>
    </g>
</svg>