<?xml version="1.0" encoding="UTF-8"?>
<svg width="18px" height="36px" viewBox="0 0 18 36" version="1.1" xmlns="http://www.w3.org/2000/svg" xmlns:xlink="http://www.w3.org/1999/xlink">
    <title>Temp</title>
    <g id="Symbols" stroke="none" stroke-width="1" fill="none" fill-rule="evenodd" fill-opacity="0.499518795">
        <g id="Car's-top-tab" transform="translate(-177.000000, 0.000000)" fill="#FFFFFF" fill-rule="nonzero">
            <g id="Thermo-OFF" transform="translate(177.000000, 0.000000)">
                <path d="M14.4,19.8 L14.4,5.4 C14.4,2.34 12.06,0 9,0 C5.94,0 3.6,2.34 3.6,5.4 L3.6,19.8 C1.26,21.42 0,24.12 0,27 C0,32.04 3.96,36 9,36 C14.04,36 18,32.04 18,27 C18,24.12 16.74,21.42 14.4,19.8 Z M9,34.2 C5.04,34.2 1.8,30.96 1.8,27 C1.8,24.66 3.06,22.32 5.04,21.06 C5.22,20.88 5.4,20.52 5.4,20.34 L5.4,5.4 C5.4,3.42 7.02,1.8 9,1.8 C10.98,1.8 12.6,3.42 12.6,5.4 L12.6,20.34 C12.6,20.7 12.78,20.88 12.96,21.06 C14.94,22.32 16.2,24.66 16.2,27 C16.2,30.96 12.96,34.2 9,34.2 Z" id="Shape"></path>
                <path d="M10.3783784,23.1043659 L10.3783784,14.5197505 C10.3783784,13.6889813 9.82702703,13.1351351 9,13.1351351 C8.17297297,13.1351351 7.62162162,13.6889813 7.62162162,14.5197505 L7.62162162,23.1043659 C5.96756757,23.6582121 4.86486486,25.181289 4.86486486,26.981289 C4.86486486,29.3351351 6.65675676,31.1351351 9,31.1351351 C11.3432432,31.1351351 13.1351351,29.3351351 13.1351351,26.981289 C13.1351351,25.181289 12.0324324,23.6582121 10.3783784,23.1043659 Z" id="Shape"></path>
            </g>
        </g>
    </g>
</svg>