<?xml version="1.0" encoding="UTF-8"?>
<svg width="36px" height="36px" viewBox="0 0 36 36" version="1.1" xmlns="http://www.w3.org/2000/svg" xmlns:xlink="http://www.w3.org/1999/xlink">
    <title>Tyre</title>
    <g id="Symbols" stroke="none" stroke-width="1" fill="none" fill-rule="evenodd">
        <g id="Car's-top-tab" transform="translate(-260.000000, 0.000000)" fill="#848484" fill-rule="nonzero">
            <g id="Wheel-OFF" transform="translate(260.000000, 0.000000)">
                <path d="M18,0 C8.05926316,0 0,8.06021053 0,18 C0,27.9416842 8.05926316,36 18,36 C27.9407368,36 36,27.9416842 36,18 C36,8.06021053 27.9407368,0 18,0 Z M18,32.1230769 C10.1678545,32.1230769 3.81818182,25.7987631 3.81818182,18 C3.81818182,10.2012369 10.1678545,3.87692308 18,3.87692308 C25.8312,3.87692308 32.1818182,10.2012369 32.1818182,18 C32.1818182,25.7987631 25.8312,32.1230769 18,32.1230769 Z" id="Shape"></path>
                <path d="M18,5.45454545 C11.0713247,5.45454545 5.45454545,11.0722208 5.45454545,18 C5.45454545,24.9286753 11.0713247,30.5454545 18,30.5454545 C24.9286753,30.5454545 30.5454545,24.9286753 30.5454545,18 C30.5454545,11.0722208 24.9286753,5.45454545 18,5.45454545 Z M28.7532468,18 C28.7532468,19.4257013 28.4700779,20.7832987 27.9655714,22.0288831 C25.9000519,21.4634416 24.0227143,20.4804156 22.226026,19.4310779 C22.3792597,18.9785455 22.4805195,18.5036104 22.4805195,18 C22.4805195,17.4972857 22.3792597,17.0223506 22.226026,16.5707143 C24.0227143,15.5195844 25.9000519,14.5365584 27.9655714,13.972013 C28.4700779,15.2175974 28.7532468,16.5742987 28.7532468,18 Z M26.4672857,11.3876494 C24.9474935,12.8922078 23.1588701,14.0257792 21.3523247,15.0554026 C20.7142987,14.3295584 19.8585195,13.8026494 18.8745974,13.6081948 C18.8638442,11.5355065 18.9507662,9.42607792 19.492013,7.36235065 C22.3183247,7.75574026 24.7897792,9.24148052 26.4672857,11.3876494 Z M16.507987,7.36235065 C17.0483377,9.42607792 17.1361558,11.5346104 17.1245065,13.6081948 C16.1396883,13.8026494 15.2848052,14.3304545 14.6467792,15.0554026 C12.8402338,14.0266753 11.0525065,12.8931039 9.53181818,11.3876494 C11.2102208,9.24237662 13.6816753,7.75574026 16.507987,7.36235065 Z M7.24675325,18 C7.24675325,16.5742987 7.52992208,15.2167013 8.03442857,13.972013 C10.0999481,14.5374545 11.9772857,15.5195844 13.773974,16.5707143 C13.6207403,17.0214545 13.5194805,17.4972857 13.5194805,18 C13.5194805,18.5036104 13.6216364,18.9794416 13.773974,19.4310779 C11.9781818,20.4822078 10.0999481,21.4652338 8.03442857,22.0297792 C7.53081818,20.7841948 7.24675325,19.4265974 7.24675325,18 Z M9.53181818,24.6132468 C11.0534026,23.1086883 12.842026,21.9751169 14.6476753,20.9454935 C15.2848052,21.6713377 16.1414805,22.1973506 17.1254026,22.3918052 C17.1370519,24.4644935 17.0483377,26.5739221 16.507987,28.6376494 C13.6816753,28.2451558 11.2102208,26.7585195 9.53181818,24.6132468 Z M19.4929091,28.6376494 C18.9516623,26.5748182 18.8638442,24.4653896 18.8745974,22.3918052 C19.8585195,22.1964545 20.7142987,21.6704416 21.3514286,20.9454935 C23.1588701,21.9742208 24.9465974,23.1077922 26.4681818,24.6123506 C24.7906753,26.7576234 22.3192208,28.2442597 19.4929091,28.6376494 Z" id="Shape"></path>
            </g>
        </g>
    </g>
</svg>